<svg width="26" height="24" viewBox="0 0 26 24" fill="none" xmlns="http://www.w3.org/2000/svg">
<path fill-rule="evenodd" clip-rule="evenodd" d="M23.6676 2.03571C22.0643 0.400642 20.2794 -0.105183 18.6032 0.017527C16.9723 0.136918 15.5036 0.844368 14.4309 1.52484C13.5849 2.06146 12.3808 2.06146 11.5349 1.52484C10.4622 0.844377 8.99346 0.136935 7.36259 0.0175456C5.68639 -0.105161 3.90151 0.40066 2.29818 2.03571C0.405337 3.966 -0.188523 6.34888 0.0499476 8.75922C0.285669 11.1418 1.33075 13.5638 2.7246 15.7099C4.12217 17.8617 5.90743 19.7937 7.69844 21.1965C9.45007 22.5685 11.3559 23.5506 12.9829 23.5506C14.61 23.5506 16.5158 22.5685 18.2674 21.1965C20.0584 19.7937 21.8437 17.8617 23.2412 15.7099C24.6351 13.5638 25.6801 11.1418 25.9159 8.75922C26.1543 6.34888 25.5605 3.966 23.6676 2.03571ZM15.4013 3.0546C16.3499 2.45286 17.524 1.91297 18.7355 1.82428C19.9016 1.73892 21.1584 2.06428 22.3742 3.30408C23.8273 4.78601 24.3085 6.60611 24.1131 8.58086C23.915 10.5834 23.0174 12.7286 21.7219 14.7232C20.4302 16.712 18.7796 18.4942 17.1503 19.7703C15.4817 21.0773 13.9828 21.739 12.9829 21.739C11.9831 21.739 10.4842 21.0773 8.81552 19.7703C7.18623 18.4942 5.53559 16.712 4.24388 14.7232C2.94845 12.7286 2.05086 10.5834 1.85274 8.58086C1.65736 6.60611 2.13848 4.78601 3.59165 3.30409C4.80739 2.0643 6.06423 1.73894 7.23032 1.8243C8.44174 1.91298 9.61588 2.45287 10.5645 3.05461C12.0028 3.96699 13.963 3.96699 15.4013 3.0546Z" fill="#FAFAFA"/>
</svg>
