<svg width="28" height="27" viewBox="0 0 28 27" fill="none" xmlns="http://www.w3.org/2000/svg">
<path fill-rule="evenodd" clip-rule="evenodd" d="M18.639 3.64926C17.0581 -1.21642 10.1744 -1.21642 8.5935 3.64926C8.12868 5.07982 6.79556 6.04839 5.29138 6.04839C0.175303 6.04839 -1.95186 12.5951 2.18713 15.6023C3.40405 16.4864 3.91325 18.0536 3.44843 19.4841C1.86748 24.3498 7.43645 28.3959 11.5754 25.3888C12.7924 24.5046 14.4402 24.5046 15.6571 25.3888C19.7961 28.3959 25.365 24.3498 23.7841 19.4841C23.3193 18.0536 23.8285 16.4864 25.0454 15.6023C29.1844 12.5951 27.0572 6.04839 21.9412 6.04839C20.437 6.04839 19.1039 5.07982 18.639 3.64926ZM10.3141 4.20833C11.3535 1.00948 15.879 1.00948 16.9184 4.20833C17.6254 6.38432 19.6532 7.85758 21.9412 7.85758C25.3046 7.85758 26.7031 12.1616 23.982 14.1386C22.131 15.4834 21.3564 17.8672 22.0635 20.0432C23.1028 23.2421 19.4416 25.9021 16.7205 23.9251C14.8695 22.5802 12.363 22.5802 10.512 23.9251C7.79092 25.9021 4.12971 23.2421 5.16908 20.0432C5.8761 17.8672 5.10156 15.4834 3.25055 14.1386C0.529452 12.1616 1.92791 7.85758 5.29138 7.85758C7.57935 7.85758 9.60712 6.38432 10.3141 4.20833Z" fill="#FAFAFA"/>
</svg>
