<svg width="21" height="21" viewBox="0 0 21 21" fill="none" xmlns="http://www.w3.org/2000/svg">
<path fill-rule="evenodd" clip-rule="evenodd" d="M5.82254 0.0247045C5.46024 -1.5169e-05 5.01893 -8.12625e-06 4.4903 3.10253e-07H4.43021C3.90158 -8.12625e-06 3.46025 -1.5169e-05 3.09795 0.0247045C2.72079 0.0504378 2.36454 0.105915 2.01915 0.248979C1.2177 0.580951 0.580951 1.2177 0.248979 2.01915C0.105915 2.36454 0.0504378 2.72079 0.0247045 3.09795C-1.5169e-05 3.46025 -8.12625e-06 3.90156 3.10254e-07 4.4302V4.49028C-8.12625e-06 5.01892 -1.5169e-05 5.46024 0.0247045 5.82254C0.0504378 6.1997 0.105915 6.55596 0.248979 6.90135C0.580951 7.7028 1.2177 8.33955 2.01915 8.67152C2.36454 8.81458 2.72079 8.87006 3.09795 8.89579C3.46026 8.92051 3.90157 8.9205 4.43021 8.9205H4.49029C5.01893 8.9205 5.46024 8.92051 5.82254 8.89579C6.1997 8.87006 6.55596 8.81458 6.90135 8.67152C7.7028 8.33955 8.33955 7.7028 8.67152 6.90135C8.81458 6.55596 8.87006 6.1997 8.89579 5.82254C8.92051 5.46024 8.9205 5.01893 8.9205 4.49029V4.43021C8.9205 3.90157 8.92051 3.46026 8.89579 3.09795C8.87006 2.72079 8.81458 2.36454 8.67152 2.01915C8.33955 1.2177 7.7028 0.580951 6.90135 0.248979C6.55596 0.105915 6.1997 0.0504378 5.82254 0.0247045ZM2.70189 1.89727C2.79366 1.85926 2.93308 1.8242 3.2194 1.80467C3.51373 1.78458 3.89385 1.7841 4.46025 1.7841C5.02664 1.7841 5.40677 1.78458 5.7011 1.80467C5.98742 1.8242 6.12684 1.85926 6.2186 1.89727C6.5829 2.04817 6.87233 2.3376 7.02322 2.70189C7.06124 2.79366 7.0963 2.93308 7.11583 3.2194C7.13591 3.51373 7.1364 3.89385 7.1364 4.46025C7.1364 5.02664 7.13591 5.40677 7.11583 5.7011C7.0963 5.98742 7.06124 6.12684 7.02322 6.2186C6.87233 6.5829 6.5829 6.87233 6.2186 7.02322C6.12684 7.06124 5.98742 7.0963 5.7011 7.11583C5.40677 7.13591 5.02664 7.1364 4.46025 7.1364C3.89385 7.1364 3.51373 7.13591 3.2194 7.11583C2.93308 7.0963 2.79366 7.06124 2.70189 7.02322C2.3376 6.87233 2.04817 6.5829 1.89727 6.2186C1.85926 6.12684 1.8242 5.98742 1.80467 5.7011C1.78458 5.40677 1.7841 5.02664 1.7841 4.46025C1.7841 3.89385 1.78458 3.51373 1.80467 3.2194C1.8242 2.93308 1.85926 2.79366 1.89727 2.70189C2.04817 2.3376 2.3376 2.04817 2.70189 1.89727Z" fill="#FAFAFA"/>
<path d="M17.2463 0.89205C17.2463 0.399385 16.8469 3.10253e-07 16.3542 3.10253e-07C15.8616 3.10253e-07 15.4622 0.399385 15.4622 0.89205V3.5682H12.786C12.2934 3.5682 11.894 3.96758 11.894 4.46025C11.894 4.95291 12.2934 5.3523 12.786 5.3523H15.4622V8.02845C15.4622 8.52111 15.8616 8.9205 16.3542 8.9205C16.8469 8.9205 17.2463 8.52111 17.2463 8.02845V5.3523H19.9224C20.4151 5.3523 20.8145 4.95291 20.8145 4.46025C20.8145 3.96758 20.4151 3.5682 19.9224 3.5682H17.2463V0.89205Z" fill="#FAFAFA"/>
<path fill-rule="evenodd" clip-rule="evenodd" d="M5.82254 11.9187C5.46024 11.894 5.01893 11.894 4.49029 11.894H4.43021C3.90157 11.894 3.46026 11.894 3.09795 11.9187C2.72079 11.9444 2.36454 11.9999 2.01915 12.143C1.2177 12.4749 0.580951 13.1117 0.248979 13.9131C0.105915 14.2585 0.0504378 14.6148 0.0247045 14.9919C-1.5169e-05 15.3542 -8.12625e-06 15.7956 3.10254e-07 16.3242V16.3843C-8.12625e-06 16.9129 -1.5169e-05 17.3542 0.0247045 17.7165C0.0504378 18.0937 0.105915 18.45 0.248979 18.7953C0.580951 19.5968 1.2177 20.2335 2.01915 20.5655C2.36454 20.7086 2.72079 20.764 3.09795 20.7898C3.46026 20.8145 3.90157 20.8145 4.43021 20.8145H4.49029C5.01893 20.8145 5.46024 20.8145 5.82254 20.7898C6.1997 20.764 6.55596 20.7086 6.90135 20.5655C7.7028 20.2335 8.33955 19.5968 8.67152 18.7953C8.81458 18.4499 8.87006 18.0937 8.89579 17.7165C8.92051 17.3542 8.9205 16.9129 8.9205 16.3843V16.3242C8.9205 15.7956 8.92051 15.3542 8.89579 14.9919C8.87006 14.6148 8.81458 14.2585 8.67152 13.9131C8.33955 13.1117 7.7028 12.4749 6.90135 12.143C6.55596 11.9999 6.1997 11.9444 5.82254 11.9187ZM2.70189 13.7913C2.79366 13.7533 2.93308 13.7182 3.2194 13.6987C3.51373 13.6786 3.89385 13.6781 4.46025 13.6781C5.02664 13.6781 5.40677 13.6786 5.7011 13.6987C5.98742 13.7182 6.12684 13.7533 6.2186 13.7913C6.5829 13.9422 6.87233 14.2316 7.02322 14.5959C7.06124 14.6877 7.0963 14.8271 7.11583 15.1134C7.13591 15.4077 7.1364 15.7878 7.1364 16.3542C7.1364 16.9206 7.13591 17.3008 7.11583 17.5951C7.0963 17.8814 7.06124 18.0208 7.02322 18.1126C6.87233 18.4769 6.5829 18.7663 6.2186 18.9172C6.12684 18.9552 5.98742 18.9903 5.7011 19.0098C5.40677 19.0299 5.02664 19.0304 4.46025 19.0304C3.89385 19.0304 3.51373 19.0299 3.2194 19.0098C2.93308 18.9903 2.79366 18.9552 2.70189 18.9172C2.3376 18.7663 2.04817 18.4769 1.89727 18.1126C1.85926 18.0208 1.8242 17.8814 1.80467 17.5951C1.78458 17.3008 1.7841 16.9206 1.7841 16.3542C1.7841 15.7878 1.78458 15.4077 1.80467 15.1134C1.8242 14.8271 1.85926 14.6877 1.89727 14.5959C2.04817 14.2316 2.3376 13.9422 2.70189 13.7913Z" fill="#FAFAFA"/>
<path fill-rule="evenodd" clip-rule="evenodd" d="M17.7165 11.9187C17.3542 11.894 16.9129 11.894 16.3843 11.894H16.3242C15.7956 11.894 15.3542 11.894 14.9919 11.9187C14.6148 11.9444 14.2585 11.9999 13.9131 12.143C13.1117 12.4749 12.4749 13.1117 12.143 13.9131C11.9999 14.2585 11.9444 14.6148 11.9187 14.9919C11.894 15.3542 11.894 15.7956 11.894 16.3242V16.3843C11.894 16.9129 11.894 17.3542 11.9187 17.7165C11.9444 18.0937 11.9999 18.4499 12.143 18.7953C12.4749 19.5968 13.1117 20.2335 13.9131 20.5655C14.2585 20.7086 14.6148 20.764 14.9919 20.7898C15.3542 20.8145 15.7956 20.8145 16.3242 20.8145H16.3843C16.9129 20.8145 17.3542 20.8145 17.7165 20.7898C18.0937 20.764 18.4499 20.7086 18.7953 20.5655C19.5968 20.2335 20.2335 19.5968 20.5655 18.7953C20.7086 18.4499 20.764 18.0937 20.7898 17.7165C20.8145 17.3542 20.8145 16.9129 20.8145 16.3843V16.3242C20.8145 15.7956 20.8145 15.3542 20.7898 14.9919C20.764 14.6148 20.7086 14.2585 20.5655 13.9131C20.2335 13.1117 19.5968 12.4749 18.7953 12.143C18.4499 11.9999 18.0937 11.9444 17.7165 11.9187ZM14.5959 13.7913C14.6877 13.7533 14.8271 13.7182 15.1134 13.6987C15.4077 13.6786 15.7878 13.6781 16.3542 13.6781C16.9206 13.6781 17.3008 13.6786 17.5951 13.6987C17.8814 13.7182 18.0208 13.7533 18.1126 13.7913C18.4769 13.9422 18.7663 14.2316 18.9172 14.5959C18.9552 14.6877 18.9903 14.8271 19.0098 15.1134C19.0299 15.4077 19.0304 15.7878 19.0304 16.3542C19.0304 16.9206 19.0299 17.3008 19.0098 17.5951C18.9903 17.8814 18.9552 18.0208 18.9172 18.1126C18.7663 18.4769 18.4769 18.7663 18.1126 18.9172C18.0208 18.9552 17.8814 18.9903 17.5951 19.0098C17.3008 19.0299 16.9206 19.0304 16.3542 19.0304C15.7878 19.0304 15.4077 19.0299 15.1134 19.0098C14.8271 18.9903 14.6877 18.9552 14.5959 18.9172C14.2316 18.7663 13.9422 18.4769 13.7913 18.1126C13.7533 18.0208 13.7182 17.8814 13.6987 17.5951C13.6786 17.3008 13.6781 16.9206 13.6781 16.3542C13.6781 15.7878 13.6786 15.4077 13.6987 15.1134C13.7182 14.8271 13.7533 14.6877 13.7913 14.5959C13.9422 14.2316 14.2316 13.9422 14.5959 13.7913Z" fill="#FAFAFA"/>
</svg>
